<?xml version="1.0" standalone="no"?>
<!DOCTYPE svg PUBLIC "-//W3C//DTD SVG 20010904//EN"
 "http://www.w3.org/TR/2001/REC-SVG-20010904/DTD/svg10.dtd">
<svg version="1.0" xmlns="http://www.w3.org/2000/svg"
 width="306.000000pt" height="55.000000pt" viewBox="0 0 306.000000 55.000000"
 preserveAspectRatio="xMidYMid meet">

<g transform="translate(0.000000,55.000000) scale(0.100000,-0.100000)"
fill="#000000" stroke="none">
<path d="M365 478 c-76 -41 -49 -127 44 -143 23 -4 49 -14 57 -23 15 -15 15
-17 -6 -34 -27 -22 -56 -23 -94 -3 -37 20 -46 19 -46 -4 0 -32 29 -46 97 -46
59 0 67 3 89 28 46 53 22 98 -64 123 -64 19 -75 29 -60 57 8 15 18 18 51 14
23 -2 52 -8 65 -12 33 -11 30 28 -3 43 -32 15 -104 15 -130 0z"/>
<path d="M812 358 c3 -125 4 -133 23 -133 19 0 20 7 20 130 0 128 0 130 -23
133 l-23 3 3 -133z"/>
<path d="M947 484 c-4 -4 -7 -18 -7 -31 0 -18 -6 -23 -24 -23 -25 0 -51 -22
-39 -33 3 -4 19 -7 35 -7 24 0 28 -4 28 -29 0 -36 13 -46 31 -24 8 9 13 18 12
20 -2 1 -3 10 -3 18 0 10 10 15 31 15 24 0 30 4 27 18 -2 10 -14 18 -30 20
-20 2 -28 9 -30 29 -3 27 -18 39 -31 27z"/>
<path d="M1917 453 c-4 -3 -7 -14 -7 -24 0 -9 -9 -19 -20 -22 -11 -3 -20 -10
-20 -17 0 -7 9 -14 20 -17 17 -4 20 -14 20 -55 0 -60 33 -101 78 -96 34 4 35
25 2 41 -21 10 -25 21 -28 59 -2 44 -1 47 25 50 37 4 37 32 0 36 -15 2 -27 9
-26 15 3 27 -2 37 -19 37 -10 0 -22 -3 -25 -7z"/>
<path d="M608 399 c-10 -5 -18 -17 -18 -25 0 -12 9 -13 50 -8 46 6 50 5 50
-15 0 -17 -6 -21 -36 -21 -51 0 -74 -15 -74 -50 0 -46 67 -79 98 -48 8 8 15 8
27 -2 27 -23 45 5 45 70 0 78 -24 110 -83 110 -23 0 -50 -5 -59 -11z m80 -111
c-2 -17 -10 -23 -28 -23 -30 0 -40 31 -13 38 37 10 44 7 41 -15z"/>
<path d="M1302 394 c-45 -32 -20 -82 51 -98 15 -4 27 -13 27 -22 0 -14 -8 -15
-55 -9 -35 4 -55 3 -55 -4 0 -18 44 -41 80 -41 49 0 80 24 80 61 0 31 -14 41
-72 53 -28 6 -37 29 -17 41 5 4 24 1 40 -5 38 -16 59 -1 34 24 -21 20 -84 21
-113 0z"/>
<path d="M1465 400 c-3 -5 11 -42 31 -81 34 -69 35 -75 23 -111 -9 -29 -10
-41 -1 -50 8 -8 15 -9 22 -2 19 19 120 235 115 245 -14 22 -37 5 -62 -46 -15
-30 -30 -55 -33 -55 -4 0 -17 25 -29 55 -16 39 -28 55 -41 55 -11 0 -21 -4
-25 -10z"/>
<path d="M1710 390 c-37 -37 -18 -75 46 -91 60 -16 51 -35 -15 -32 -44 2 -52
0 -49 -14 8 -44 130 -41 150 3 16 35 1 55 -52 74 -24 8 -45 20 -47 26 -6 17
24 25 53 14 35 -14 44 -13 44 5 0 37 -97 48 -130 15z"/>
<path d="M2092 403 c-19 -7 -42 -58 -42 -92 0 -40 37 -80 80 -87 42 -7 90 10
90 31 0 13 -9 15 -49 9 -43 -6 -50 -4 -60 14 -17 31 -15 32 49 32 56 0 60 1
60 24 0 13 -9 35 -21 50 -16 20 -29 26 -57 25 -20 0 -43 -3 -50 -6z m78 -42
c15 -29 13 -31 -30 -31 -43 0 -49 9 -24 34 21 21 41 20 54 -3z"/>
<path d="M2282 318 c3 -85 5 -93 23 -93 17 0 20 8 23 60 3 63 14 85 42 85 21
0 30 -27 30 -92 0 -93 47 -70 52 25 3 59 4 62 28 62 24 0 25 -3 28 -62 3 -68
21 -95 47 -73 11 9 13 28 9 83 -3 39 -10 77 -16 84 -14 18 -68 16 -88 -2 -15
-14 -18 -14 -30 0 -14 17 -53 20 -80 5 -13 -7 -21 -7 -25 0 -3 5 -15 10 -26
10 -18 0 -20 -6 -17 -92z"/>
<path d="M2640 390 c-37 -37 -19 -72 45 -90 60 -17 53 -36 -14 -33 -39 2 -51
-1 -51 -13 0 -16 39 -34 75 -34 68 0 108 57 65 92 -12 10 -30 18 -39 18 -10 0
-26 7 -37 15 -16 13 -17 16 -4 25 8 5 22 7 30 4 38 -16 60 -16 60 -1 0 39 -96
51 -130 17z"/>
<path d="M935 280 c-17 -28 49 -80 100 -80 34 0 82 25 95 50 17 31 3 40 -35
24 -19 -8 -46 -14 -60 -14 -14 0 -41 6 -60 14 -20 9 -37 11 -40 6z"/>
</g>
</svg>
